<?xml version="1.0" encoding="UTF-8" standalone="no"?>
<!-- Created with Inkscape (http://www.inkscape.org/) -->

<svg
   xmlns:dc="http://purl.org/dc/elements/1.1/"
   xmlns:cc="http://creativecommons.org/ns#"
   xmlns:rdf="http://www.w3.org/1999/02/22-rdf-syntax-ns#"
   xmlns:svg="http://www.w3.org/2000/svg"
   xmlns="http://www.w3.org/2000/svg"
   xmlns:sodipodi="http://sodipodi.sourceforge.net/DTD/sodipodi-0.dtd"
   xmlns:inkscape="http://www.inkscape.org/namespaces/inkscape"
   width="578.94897mm"
   height="72.185997mm"
   viewBox="0 0 578.94897 72.185997"
   version="1.1"
   id="svg8"
   inkscape:version="0.92.4 (unknown)"
   sodipodi:docname="logo_long.svg">
  <defs
     id="defs2" />
  <sodipodi:namedview
     id="base"
     pagecolor="#ffffff"
     bordercolor="#666666"
     borderopacity="1.0"
     inkscape:pageopacity="0.0"
     inkscape:pageshadow="2"
     inkscape:zoom="0.35"
     inkscape:cx="411.42857"
     inkscape:cy="548.57143"
     inkscape:document-units="mm"
     inkscape:current-layer="layer1"
     showgrid="false"
     inkscape:window-width="1920"
     inkscape:window-height="1016"
     inkscape:window-x="0"
     inkscape:window-y="27"
     inkscape:window-maximized="1" />
  <metadata
     id="metadata5">
    <rdf:RDF>
      <cc:Work
         rdf:about="">
        <dc:format>image/svg+xml</dc:format>
        <dc:type
           rdf:resource="http://purl.org/dc/dcmitype/StillImage" />
        <dc:title></dc:title>
      </cc:Work>
    </rdf:RDF>
  </metadata>
  <g
     inkscape:label="Layer 1"
     inkscape:groupmode="layer"
     id="layer1"
     transform="translate(0,-224.814)">
    <path
       id="rect4"
       d="m 0,224.81372 v 18.0418 18.04178 18.0418 h 18.06298 v -17.99012 a 18.063103,18.041938 0 0 0 18.0604,17.99012 18.063103,18.041938 0 0 0 18.0635,-18.0418 18.063103,18.041938 0 0 0 -18.0635,-18.04178 18.063103,18.041938 0 0 0 -18.0604,17.96944 v -17.96944 -18.0418 z m 54.18688,36.08358 v 18.0418 H 72.24986 V 260.94898 A 18.063103,18.041938 0 0 0 90.310244,278.9391 18.063103,18.041938 0 0 0 108.37323,260.8973 18.063103,18.041938 0 0 0 90.310244,242.85552 18.063103,18.041938 0 0 0 72.24986,260.82392 v -17.9684 h -8.9607 a 9.0302294,9.0222911 0 0 0 8.95811,-9.01961 9.0302294,9.0222911 0 0 0 -9.03045,-9.02219 9.0302294,9.0222911 0 0 0 -9.02994,9.02219 9.0302294,9.0222911 0 0 0 8.97826,9.01961 h -8.97826 z m 54.18635,0 v 18.0418 h 18.06298 18.06349 v 5.2e-4 18.04179 h 18.06299 V 278.93962 260.9495 a 18.063103,18.041938 0 0 0 18.06039,17.99012 18.063103,18.041938 0 0 0 18.0635,-18.0418 18.063103,18.041938 0 0 0 -18.0635,-18.0423 18.063103,18.041938 0 0 0 -18.06039,17.96996 v -17.96996 h -18.06299 -8.96069 a 9.0302294,9.0222911 0 0 0 8.95811,-9.01961 9.0302294,9.0222911 0 0 0 -9.03046,-9.02219 9.0302294,9.0222911 0 0 0 -9.03045,9.02219 9.0302294,9.0222911 0 0 0 8.97878,9.01961 h -8.97878 v -9.01961 -9.02219 h -18.06298 v 18.0418 z m 90.31335,5.2e-4 v 18.0418 h 18.06298 a 18.042054,18.042054 0 0 0 0,-36.0841 18.052521,18.052521 0 0 0 -18.06298,18.0423 z m 36.12337,-18.0423 v 18.0423 18.0418 18.04179 h 18.06298 v -18.04179 -18.0418 -18.0423 z m 18.06298,18.0423 a 18.063103,18.041938 0 0 0 18.06298,18.0418 18.063103,18.041938 0 0 0 18.06092,-17.96945 v 17.96945 18.04179 h 18.06299 v -18.04179 -18.0418 -18.0423 h -18.06299 v 17.99062 a 18.063103,18.041938 0 0 0 -18.06092,-17.99062 18.063103,18.041938 0 0 0 -18.06298,18.0423 z m 54.18689,0 a 18.063103,18.041938 0 0 0 18.06298,18.0418 18.063103,18.041938 0 0 0 18.0604,-17.96945 v 17.96945 h 18.06297 a 18.042054,18.042054 0 0 0 0,-36.0841 18.052521,18.052521 0 0 0 -18.06194,18.01233 18.063103,18.041938 0 0 0 -18.06143,-18.01233 18.063103,18.041938 0 0 0 -18.06298,18.0423 z m 90.31026,-18.0423 a 18.052521,18.052521 0 0 0 -18.063,18.0423 v 18.0418 h 18.063 v -18.0418 h 18.06297 v -18.0423 z m 35.83294,0.0191 a 18.041937,18.041937 0 1 0 13.70045,30.07774 l -13.45137,-12.03854 12.77131,-12.75581 a 18.041937,18.041937 0 0 0 -13.02039,-5.28339 z m 36.37299,0 a 18.052521,18.052521 0 0 0 -18.0635,18.04179 v 18.03921 h 18.0635 v -18.03921 h 18.06297 v -18.04179 z m 54.18635,0 v 18.04179 0.17983 a 18.052521,18.052521 0 0 0 -18.063,-18.04179 18.041937,18.041937 0 0 0 0,36.08358 h 18.063 v 17.86196 h 18.06297 V 278.9582 260.98875 a 18.063103,18.041938 0 0 0 18.06091,17.96945 18.063103,18.041938 0 0 0 18.063,-18.04179 18.063103,18.041938 0 0 0 -18.063,-18.04179 18.063103,18.041938 0 0 0 -18.06091,17.99011 v -17.99011 z"
       inkscape:connector-curvature="0"
       style="stroke-width:0.26458332" />
  </g>
</svg>
